<?xml version="1.0" standalone="no"?>
<!DOCTYPE svg PUBLIC "-//W3C//DTD SVG 20010904//EN"
 "http://www.w3.org/TR/2001/REC-SVG-20010904/DTD/svg10.dtd">
<svg version="1.0" xmlns="http://www.w3.org/2000/svg"
 width="848.000000pt" height="848.000000pt" viewBox="0 0 848.000000 848.000000"
 preserveAspectRatio="xMidYMid meet">
<metadata>
Created by potrace 1.11, written by Peter Selinger 2001-2013
</metadata>
<g transform="translate(0.000000,848.000000) scale(0.100000,-0.100000)"
fill="#000000" stroke="none">
<path d="M1479 8316 c-2 -2 -38 -6 -80 -10 -90 -7 -301 -60 -384 -96 -74 -31
-222 -106 -233 -117 -7 -7 -19 -13 -27 -13 -7 0 -15 -4 -17 -8 -2 -4 -27 -23
-55 -42 -29 -18 -53 -37 -53 -42 0 -4 -5 -8 -10 -8 -21 0 -212 -184 -266 -257
-16 -21 -31 -40 -34 -43 -3 -3 -19 -25 -35 -50 -17 -25 -33 -46 -37 -48 -5 -2
-8 -10 -8 -18 0 -8 -5 -14 -12 -14 -6 0 -8 -3 -5 -6 4 -4 -2 -19 -13 -34 -46
-64 -130 -273 -163 -405 -32 -126 -42 -212 -42 -380 1 -139 6 -213 20 -290 3
-16 13 -68 21 -115 9 -47 18 -94 20 -105 2 -11 6 -33 9 -50 2 -16 7 -43 11
-60 3 -16 7 -39 8 -50 2 -11 6 -31 9 -45 4 -14 9 -38 11 -55 7 -43 25 -146 31
-175 3 -14 7 -38 9 -55 3 -16 10 -55 16 -85 6 -30 13 -68 16 -85 6 -37 35
-193 40 -220 5 -25 15 -82 19 -115 4 -24 8 -45 20 -100 6 -26 8 -33 20 -115 4
-27 10 -54 13 -59 3 -5 7 -23 8 -40 3 -34 4 -44 27 -166 9 -47 18 -98 21 -115
3 -16 10 -55 16 -85 6 -30 13 -71 15 -90 5 -32 14 -79 31 -155 4 -16 7 -33 6
-38 -1 -4 2 -26 7 -50 6 -23 13 -58 16 -77 3 -19 8 -48 12 -65 3 -16 7 -39 8
-50 2 -11 6 -36 10 -55 4 -19 9 -44 10 -55 2 -11 4 -20 5 -20 1 0 3 -9 5 -20
11 -72 20 -124 28 -160 2 -11 8 -42 11 -68 4 -27 10 -59 13 -70 2 -12 6 -31 7
-42 2 -11 6 -31 10 -45 4 -14 9 -41 11 -60 4 -33 8 -57 20 -120 3 -14 8 -38
10 -55 3 -16 10 -52 15 -80 6 -27 12 -63 15 -80 2 -16 9 -55 15 -85 6 -30 13
-71 16 -90 2 -19 7 -46 10 -60 3 -14 12 -61 20 -105 8 -44 17 -91 20 -105 3
-14 7 -36 9 -50 1 -14 5 -32 8 -40 3 -8 11 -37 17 -65 16 -75 15 -74 50 -165
18 -47 37 -91 43 -97 5 -7 7 -13 4 -13 -11 0 89 -171 153 -262 58 -82 218
-254 296 -316 16 -13 72 -52 124 -86 81 -53 125 -78 272 -147 22 -11 120 -44
178 -60 25 -7 52 -14 60 -17 8 -2 24 -5 35 -6 11 -2 34 -6 50 -9 64 -14 123
-20 192 -21 40 -1 73 -5 73 -9 0 -4 8 -3 18 2 11 6 24 6 35 0 9 -6 17 -6 17
-2 0 9 108 8 117 -1 2 -2 18 0 34 4 18 5 29 5 29 -1 0 -6 7 -6 18 -1 9 5 28 6
42 2 14 -4 37 -3 53 1 15 4 27 4 27 0 0 -4 20 -5 45 -1 25 4 45 3 45 -2 0 -5
8 -4 18 1 11 6 24 6 35 0 9 -6 17 -6 17 -1 0 10 73 7 91 -3 7 -5 10 -4 6 3 -5
6 0 8 13 5 19 -5 96 -84 480 -493 69 -74 145 -155 170 -181 25 -26 95 -100
155 -165 166 -176 173 -182 242 -217 59 -30 131 -45 199 -41 59 4 75 7 91 17
7 5 13 6 13 3 0 -3 26 8 58 25 35 19 88 63 137 114 100 103 314 330 350 370
15 17 64 69 109 116 44 47 137 145 206 219 203 216 233 246 237 234 2 -7 19
-8 48 -4 25 4 45 3 45 -2 0 -5 8 -4 18 1 11 6 24 6 35 0 9 -6 17 -6 17 -2 0 9
108 8 117 -1 2 -2 18 0 34 4 18 5 29 5 29 -1 0 -6 7 -6 18 -1 9 5 28 6 42 2
14 -4 37 -3 53 1 15 4 27 4 27 0 0 -4 20 -5 45 -1 25 4 45 3 45 -2 0 -5 8 -4
18 1 11 6 24 6 35 0 9 -6 17 -6 17 -2 0 4 37 8 83 9 87 1 158 10 237 28 14 3
36 8 50 10 14 2 57 14 95 27 39 13 72 24 75 24 3 1 18 7 33 13 16 7 31 12 34
12 15 0 211 105 267 142 241 162 430 374 553 623 36 72 91 206 97 238 2 6 6
19 9 27 4 8 9 26 11 40 3 14 10 44 16 68 5 23 13 59 16 80 3 20 7 44 10 53 2
9 7 32 9 50 3 19 7 45 10 59 3 14 7 39 10 55 3 17 10 54 16 84 6 30 12 64 14
75 1 12 10 59 19 106 9 47 19 102 21 124 3 21 7 41 9 45 3 3 7 27 11 51 4 25
11 68 16 95 6 28 12 59 13 70 2 11 7 40 11 65 5 25 9 54 11 65 1 11 3 20 4 20
1 0 3 11 5 25 2 14 6 39 9 55 4 17 11 53 16 80 6 28 12 64 15 80 2 17 9 55 15
85 6 30 13 66 15 80 2 14 6 36 10 50 3 14 8 45 11 70 3 25 8 48 10 51 1 3 6
28 10 55 3 27 8 51 9 54 2 3 6 26 10 50 3 25 8 52 11 61 2 9 7 32 9 50 3 19 7
45 10 59 3 14 8 40 11 59 3 18 8 43 10 55 2 11 7 37 10 56 3 19 7 42 9 50 2 8
7 31 10 50 3 19 8 49 12 65 3 17 7 39 9 50 2 11 5 30 8 41 2 12 7 39 10 60 4
22 11 62 16 89 5 28 12 64 15 80 3 17 6 39 9 50 2 11 6 36 10 55 3 19 8 46 11
60 3 14 7 39 10 55 2 17 7 41 10 55 3 14 7 39 10 55 2 17 6 41 10 55 3 14 7
39 10 55 2 17 7 41 9 55 14 67 25 123 31 165 5 38 30 174 40 215 3 14 7 40 10
57 2 18 7 50 11 70 4 21 9 47 10 58 1 11 3 20 4 20 2 0 6 18 14 65 3 19 8 46
11 60 26 124 36 355 22 490 -6 53 -17 120 -32 185 -18 82 -54 193 -82 255 -14
30 -26 60 -27 66 -1 6 -9 23 -19 37 -9 15 -17 33 -17 41 0 8 -4 16 -8 18 -5 2
-23 29 -41 61 -18 31 -39 64 -47 72 -9 8 -12 15 -7 15 4 0 3 4 -3 8 -5 4 -23
25 -40 47 -16 21 -36 47 -44 55 -8 9 -33 36 -56 61 -58 62 -173 169 -182 169
-4 0 -19 11 -34 25 -15 14 -32 25 -38 25 -5 0 -10 5 -10 10 0 6 -7 10 -15 10
-8 0 -15 3 -15 8 0 7 -10 13 -66 42 -16 8 -31 17 -34 20 -7 7 -161 81 -180 86
-8 2 -53 17 -100 33 -47 17 -96 32 -110 35 -14 2 -45 9 -70 15 -25 5 -65 13
-90 17 -44 8 -5462 18 -5471 10z m831 -3198 c0 4 13 7 29 7 16 0 27 -3 24 -7
-2 -5 7 -4 21 2 15 5 28 6 31 0 3 -5 13 -6 22 -3 15 6 68 8 76 3 8 -5 77 -4
77 2 0 3 9 4 20 1 14 -4 20 -14 21 -37 0 -17 2 -42 5 -56 9 -59 24 -147 29
-170 18 -96 92 -298 144 -395 76 -140 85 -156 103 -175 10 -10 18 -23 18 -28
0 -4 8 -17 18 -28 9 -10 37 -44 62 -74 25 -30 72 -82 105 -115 51 -51 80 -75
160 -138 63 -48 105 -76 105 -70 0 4 4 3 8 -3 4 -6 50 -34 103 -61 84 -43 108
-54 147 -63 4 -1 12 -5 17 -10 9 -7 91 -32 105 -32 3 0 12 -4 21 -9 20 -10 58
-18 174 -36 101 -16 394 -9 483 12 12 3 30 7 40 9 147 33 315 101 430 173 29
18 56 33 61 33 5 0 11 4 13 8 2 4 25 23 52 42 82 58 198 166 266 250 19 23 40
48 46 54 69 73 229 372 260 486 2 8 15 56 29 105 29 104 37 145 51 269 6 60
11 69 31 58 8 -5 32 -6 53 -2 21 4 44 4 51 -1 7 -4 20 -4 29 1 9 5 22 5 30 0
8 -5 18 -6 24 -3 14 9 65 9 59 1 -2 -5 7 -4 21 2 16 6 27 6 31 0 4 -7 13 -6
26 0 16 9 21 7 28 -12 5 -13 7 -25 6 -28 -2 -3 -6 -36 -10 -74 -8 -89 -17
-144 -31 -206 -3 -14 -7 -32 -9 -40 -35 -171 -157 -479 -237 -600 -13 -19 -29
-47 -37 -62 -8 -15 -22 -36 -31 -46 -9 -10 -19 -23 -21 -29 -12 -31 -180 -227
-262 -305 -70 -67 -250 -208 -265 -208 -6 0 -12 -3 -14 -8 -6 -14 -260 -153
-288 -157 -3 -1 -23 -9 -45 -19 -22 -9 -89 -31 -150 -48 -60 -17 -117 -33
-125 -36 -8 -3 -22 -6 -30 -7 -8 -1 -35 -6 -60 -10 -97 -16 -147 -21 -207 -20
-35 0 -63 -2 -63 -5 0 -3 -17 -4 -37 -3 -21 2 -71 5 -112 7 -41 3 -90 7 -110
10 -20 4 -54 9 -76 12 -47 7 -70 12 -70 14 0 1 -9 3 -20 4 -11 2 -40 9 -65 16
-25 6 -52 13 -60 15 -8 2 -33 10 -55 18 -22 8 -49 18 -60 23 -11 4 -25 8 -32
10 -25 5 -231 109 -293 147 -159 100 -344 258 -460 393 -123 143 -262 372
-341 559 -16 37 -69 185 -69 193 0 4 -5 22 -11 40 -6 18 -12 41 -14 50 -2 9
-4 17 -5 17 -1 0 -3 11 -5 25 -2 14 -6 36 -9 50 -11 48 -24 125 -25 140 0 8
-2 29 -6 45 -11 60 -12 134 -1 138 6 2 21 0 34 -4 12 -5 22 -5 22 -1z"/>
</g>
</svg>
